<svg width="20" height="20" xmlns="http://www.w3.org/2000/svg" fill="#5046e5">

 <g>
  <title>Layer 1</title>
  <g stroke-width="0" id="SVGRepo_bgCarrier"/>
  <g stroke-linejoin="round" stroke-linecap="round" id="SVGRepo_tracerCarrier"/>
  <g stroke="null" id="SVGRepo_iconCarrier">
   <path stroke="null" id="svg_1" d="m18,4.36709l-16,0c-1.1,0 -2,1.01392 -2,2.25316l0,6.75949c0,1.23924 0.9,2.25316 2,2.25316l16,0c1.1,0 2,-1.01392 2,-2.25316l0,-6.75949c0,-1.23924 -0.9,-2.25316 -2,-2.25316zm0,9.01266l-16,0l0,-6.75949l16,0l0,6.75949zm-11,-5.63291l-4,0l0,4.50633l4,0l0,-4.50633zm5,0l-4,0l0,4.50633l4,0l0,-4.50633z"/>
  </g>
 </g>
</svg>