<svg width="1920" height="1920" xmlns="http://www.w3.org/2000/svg" stroke-width="0.019200000000000002" stroke="#5046e5" fill="#5046e5">

 <g>
  <title>Layer 1</title>
  <g stroke-width="0" id="SVGRepo_bgCarrier"/>
  <g stroke-width="3.84" stroke="#CCCCCC" stroke-linejoin="round" stroke-linecap="round" id="SVGRepo_tracerCarrier"/>
  <g stroke="null" id="SVGRepo_iconCarrier">
   <path stroke="null" id="svg_1" fill-rule="evenodd" d="m1109.55929,1242.353l0,112.941l-697.942,0l0,-112.941l697.942,0zm398.8235,-338.824l0,112.942l-1096.7655,0l0,-112.942l1096.7655,0zm-847.50126,-903.529c82.45746,0 149.55925,76.01 149.55925,169.412c0,26.09 -5.68267,50.484 -14.95487,72.62l199.80902,226.223l-70.59156,79.962l-199.71102,-226.334c-19.54285,10.504 -41.17885,16.942 -64.1117,16.942c-82.45658,0 -149.55837,-76.01 -149.55837,-169.412c0.00088,-93.404 67.10356,-169.413 149.55925,-169.413zm-244.279,225.882c22.93197,128.753 123.63543,225.883 244.279,225.883c11.96478,0 23.92955,-1.13 34.89763,-3.389l229.32325,259.765l211.37652,-239.435l-214.36838,-242.824l885.39074,0l0,1129.412l-498.53025,0l0,564.706l-1196.47226,0l0,-1694.118l304.10376,0zm1384.41802,1242.365l-392.34364,444.31l0,-444.31l392.34364,0z"/>
  </g>
 </g>
</svg>